<svg width="50" height="48" viewBox="0 0 50 48" fill="none" xmlns="http://www.w3.org/2000/svg"><path d="M10.465 21.333c.99 0 1.946-.14 2.853-.4 1.265-.365 2.685-.193 3.614.755a3.091 3.091 0 010 4.313l-.137.14c-.972.99-2.45 1.184-3.784.844a10.299 10.299 0 00-2.546-.318C4.685 26.667 0 31.442 0 37.333S4.685 48 10.465 48 20.93 43.224 20.93 37.333c0-.104-.001-.208-.004-.312-.042-1.471.303-2.985 1.324-4.026l.163-.166a3.802 3.802 0 015.45 0c.984 1.003 1.304 2.468 1.224 3.885-.011.205-.017.411-.017.62C29.07 43.223 33.755 48 39.535 48S50 43.224 50 37.333c0-5.89-4.685-10.666-10.465-10.666-.835 0-1.647.1-2.425.287-1.296.314-2.721.112-3.663-.848l-.14-.142a3.038 3.038 0 010-4.24c.9-.915 2.266-1.096 3.493-.759.872.24 1.789.368 2.735.368 5.78 0 10.465-4.775 10.465-10.666S45.315 0 39.535 0 29.07 4.776 29.07 10.667c0 .147.003.293.008.439.055 1.377-.272 2.793-1.229 3.768a3.784 3.784 0 01-5.422 0l-.169-.172c-.992-1.012-1.345-2.476-1.328-3.907v-.128C20.93 4.776 16.245 0 10.465 0S0 4.776 0 10.667c0 5.89 4.685 10.666 10.465 10.666z" fill="#1D1860"/></svg>