<svg width="62" height="48" viewBox="0 0 62 48" fill="none" xmlns="http://www.w3.org/2000/svg"><path d="M1.865 24.088c-1.786 0-2.547-2.203-1.12-3.246L28.74.367c1.227-.897 2.982-.048 2.982 1.441v20.475c0 .997.834 1.805 1.862 1.805h10.551c1.79 0 2.548 2.21 1.116 3.25L17.288 47.637c-1.228.89-2.977.041-2.977-1.445v-20.3c0-.996-.834-1.804-1.862-1.804H1.865z" fill="#1D1860"/><path d="M17.865 24.088c-1.786 0-2.547-2.203-1.12-3.246L44.74.367c1.227-.897 2.982-.048 2.982 1.441v20.475c0 .997.834 1.805 1.862 1.805h10.551c1.79 0 2.548 2.21 1.116 3.25L33.288 47.637c-1.228.89-2.977.041-2.977-1.445v-20.3c0-.996-.834-1.804-1.862-1.804H17.865z" fill="#1D1860"/><path d="M17.865 24.088c-1.786 0-2.547-2.203-1.12-3.246L44.74.367c1.227-.897 2.982-.048 2.982 1.441v20.475c0 .997.834 1.805 1.862 1.805h10.551c1.79 0 2.548 2.21 1.116 3.25L33.288 47.637c-1.228.89-2.977.041-2.977-1.445v-20.3c0-.996-.834-1.804-1.862-1.804H17.865z" fill="#1D1860"/></svg>