<svg width="45" height="48" viewBox="0 0 45 48" fill="none" xmlns="http://www.w3.org/2000/svg"><path d="M20.436 1.462c.596-1.95 3.532-1.95 4.128 0l3.351 10.974c.32 1.045 1.461 1.665 2.583 1.403l11.826-2.77c2.099-.492 3.566 1.913 2.056 3.37l-8.444 8.15a1.936 1.936 0 000 2.821l8.444 8.15c1.51 1.457.042 3.863-2.056 3.371l-11.826-2.77c-1.122-.262-2.263.358-2.583 1.403l-3.351 10.974c-.596 1.95-3.532 1.95-4.128 0l-3.351-10.974c-.32-1.045-1.461-1.665-2.583-1.403l-11.826 2.77c-2.098.492-3.566-1.913-2.057-3.37l8.445-8.15a1.936 1.936 0 000-2.821L.619 14.44c-1.509-1.457-.041-3.863 2.057-3.371l11.826 2.77c1.122.262 2.263-.358 2.583-1.403l3.351-10.974z" fill="#1D1860"/></svg>