<svg width="115" height="132" viewBox="0 0 115 132" fill="none" xmlns="http://www.w3.org/2000/svg"><path d="M52.226 4.022c1.522-5.363 9.026-5.363 10.548 0l8.565 30.177c.816 2.875 3.733 4.58 6.6 3.857l30.223-7.617c5.362-1.352 9.112 5.263 5.255 9.27l-21.58 22.413a5.606 5.606 0 000 7.756l21.58 22.414c3.857 4.006.107 10.621-5.255 9.269l-30.223-7.617c-2.867-.723-5.784.982-6.6 3.857l-8.565 30.177c-1.522 5.363-9.026 5.363-10.548 0L43.66 97.801c-.816-2.875-3.733-4.58-6.6-3.857l-30.223 7.617c-5.362 1.352-9.112-5.263-5.255-9.27l21.58-22.413a5.606 5.606 0 000-7.756L1.583 39.708c-3.857-4.006-.107-10.621 5.255-9.27l30.223 7.618c2.867.723 5.784-.982 6.6-3.857l8.565-30.177z" fill="#57ECA7"/></svg>