<svg width="140" height="131" viewBox="0 0 140 131" fill="none" xmlns="http://www.w3.org/2000/svg"><path d="M29.302 58.222c2.77 0 5.449-.381 7.988-1.095 3.543-.995 7.517-.524 10.12 2.063a8.284 8.284 0 010 11.77l-.384.382c-2.722 2.705-6.86 3.231-10.594 2.303a29.55 29.55 0 00-7.13-.867C13.12 72.778 0 85.81 0 101.889 0 117.967 13.12 131 29.302 131c16.184 0 29.303-13.033 29.303-29.111 0-.285-.005-.57-.013-.853-.116-4.015.848-8.146 3.707-10.986l.458-.455c4.214-4.186 11.045-4.186 15.258 0 2.756 2.738 3.652 6.737 3.429 10.603a29.317 29.317 0 00-.049 1.691c0 16.078 13.12 29.111 29.303 29.111S140 117.967 140 101.889c0-16.078-13.119-29.111-29.302-29.111a29.56 29.56 0 00-6.79.785c-3.628.855-7.619.305-10.255-2.314l-.392-.39a8.143 8.143 0 010-11.568c2.517-2.501 6.343-2.994 9.78-2.073a29.516 29.516 0 007.657 1.004c16.183 0 29.302-13.033 29.302-29.11C140 13.033 126.881 0 110.698 0 94.514 0 81.395 13.034 81.395 29.111c0 .402.008.801.025 1.199.153 3.758-.764 7.622-3.442 10.282-4.193 4.166-10.99 4.166-15.184 0l-.47-.468c-2.78-2.762-3.768-6.756-3.721-10.662l.002-.35C58.605 13.033 45.485 0 29.302 0S0 13.034 0 29.111C0 45.19 13.12 58.222 29.302 58.222z" fill="#57ECA7"/></svg>