<svg width="392" height="69" viewBox="0 0 392 69" fill="none" xmlns="http://www.w3.org/2000/svg"><path d="M21.267 68.817c14.5 0 21.266-6.69 21.266-14.813 0-8.601-5.317-13.284-15.466-14.813l-8.217-1.243c-4.35-.669-6.767-2.102-6.767-4.491 0-2.867 2.9-5.734 8.7-5.734 5.8 0 9.183 3.345 9.183 6.212h11.6c0-5.735-6.283-15.77-20.783-15.77C7.25 18.166 0 25.334 0 33.458 0 41.58 5.8 45.69 15.95 47.314l7.733 1.242c5.317.86 6.767 2.58 6.767 5.448 0 2.963-2.417 5.256-9.183 5.256-6.767 0-9.667-3.823-9.667-6.212H0c0 3.345 2.9 15.769 21.267 15.769zm30.921-.956h12.084V38.713c0-5.256 3.866-9.557 9.183-9.557 4.833 0 8.216 3.345 8.216 9.557v29.148h12.084V38.713c0-5.256 3.866-9.557 9.183-9.557 4.833 0 8.217 3.345 8.217 9.557v29.148h12.083V37.757c0-10.99-8.217-19.591-18.367-19.591s-14.5 6.69-14.5 6.69h-.483s-3.867-6.69-13.533-6.69c-7.734 0-11.6 5.734-11.6 5.734h-.483l-.967-4.779H52.188v48.74zm98.634.956c9.666 0 14.016-5.734 14.016-5.734h.484l.966 4.778h10.15v-31.06c0-10.512-8.216-18.635-20.783-18.635-13.05 0-19.817 7.645-20.783 15.768h12.083c.483-2.866 3.383-6.211 8.7-6.211 5.317 0 8.7 3.822 8.7 9.079v.955h-11.117c-13.533 0-20.3 6.69-20.3 16.247 0 8.123 6.767 14.813 17.884 14.813zm1.933-9.557c-4.833 0-7.733-2.389-7.733-6.212s2.9-6.212 9.183-6.212h10.15v1.434c0 6.69-4.35 10.99-11.6 10.99zm35.748 8.601h12.083V39.67c0-6.212 2.9-9.08 9.183-9.08h8.7V19.122h-9.667c-5.8 0-8.7 4.301-8.7 4.301h-.483l-.967-4.3h-10.149v48.74zm53.627 0h10.633V57.35h-7.734c-2.416 0-3.383-.956-3.383-3.345V30.59h11.117V19.12h-11.117V5.264h-12.083v13.857h-7.733V30.59h7.733v25.803c0 7.168 4.35 11.468 12.567 11.468zm49.749.956c16.916 0 28.033-10.99 28.033-28.193V.964h-12.567v39.66c0 9.557-6.767 16.247-15.466 16.247-8.7 0-15.467-6.69-15.467-16.247V.964h-12.567v39.66c0 17.203 11.117 28.193 28.034 28.193zm32.885-.956h14.016l5.124-14.335h28.42l5.123 14.335h14.016L367.297.963H348.93l-24.166 66.898zm23.2-25.803l9.183-26.76h1.933l9.184 26.76h-20.3z" fill="#1D1860"/></svg>