<svg width="140" height="131" viewBox="0 0 140 131" fill="none" xmlns="http://www.w3.org/2000/svg"><path d="M29.247 58.222a29.36 29.36 0 007.972-1.095c3.537-.995 7.503-.524 10.101 2.063a8.296 8.296 0 010 11.77l-.383.382c-2.717 2.705-6.847 3.231-10.574 2.303a29.44 29.44 0 00-7.116-.867C13.094 72.778 0 85.81 0 101.889 0 117.967 13.094 131 29.247 131c16.152 0 29.246-13.033 29.246-29.111 0-.285-.004-.57-.012-.853-.116-4.015.846-8.146 3.7-10.986l.457-.455c4.205-4.186 11.023-4.186 15.229 0 2.75 2.738 3.644 6.737 3.422 10.603a29.408 29.408 0 00-.049 1.691c0 16.078 13.094 29.111 29.247 29.111 16.152 0 29.246-13.033 29.246-29.111 0-16.078-13.094-29.111-29.246-29.111-2.333 0-4.602.272-6.777.785-3.621.855-7.604.305-10.236-2.314l-.39-.39a8.154 8.154 0 010-11.568c2.511-2.501 6.33-2.994 9.76-2.073a29.42 29.42 0 007.643 1.004c16.152 0 29.246-13.033 29.246-29.11C139.733 13.033 126.639 0 110.487 0 94.334 0 81.24 13.034 81.24 29.111c0 .402.009.801.025 1.199.153 3.758-.763 7.622-3.435 10.282-4.185 4.166-10.97 4.166-15.155 0l-.47-.468c-2.775-2.762-3.76-6.756-3.714-10.662l.002-.35C58.493 13.033 45.399 0 29.246 0 13.095 0 0 13.034 0 29.111 0 45.19 13.094 58.222 29.247 58.222z" fill="#FF9A51"/></svg>