<svg width="499" height="389" viewBox="0 0 499 389" fill="none" xmlns="http://www.w3.org/2000/svg"><path d="M15.734 195.212c-14.33 0-20.431-17.854-8.99-26.307L231.32 2.975c9.838-7.268 23.922-.393 23.922 11.68v165.929c0 8.079 6.685 14.628 14.931 14.628h84.64c14.356 0 20.441 17.91 8.948 26.338l-224.31 164.506c-9.845 7.22-23.88.338-23.88-11.71V209.84c0-8.079-6.685-14.628-14.932-14.628H15.734z" fill="#FF9A51"/><path d="M144.734 195.212c-14.329 0-20.431-17.854-8.991-26.307L360.32 2.975c9.838-7.268 23.922-.393 23.922 11.68v165.929c0 8.079 6.685 14.628 14.931 14.628h84.64c14.356 0 20.441 17.91 8.948 26.338l-224.31 164.506c-9.845 7.22-23.88.338-23.88-11.71V209.84c0-8.079-6.685-14.628-14.932-14.628h-84.905z" fill="#FF9A51"/></svg>