<svg width="389" height="396" viewBox="0 0 389 396" fill="none" xmlns="http://www.w3.org/2000/svg"><path d="M197.761 396a196.806 196.806 0 01-51.091-6.767 196.71 196.71 0 01-69.239-34.167 197.065 197.065 0 01-50.91-58.063 197.128 197.128 0 01-24.811-73.15 197.064 197.064 0 015.052-77.084A199.487 199.487 0 0174.93 42.836 199.261 199.261 0 01191.538 0l1.351 41.045A158 158 0 00100.431 75a158.18 158.18 0 00-54.023 82.39 155.992 155.992 0 0015.667 119.13 155.897 155.897 0 0040.307 46.083 155.78 155.78 0 0054.932 26.997 157.521 157.521 0 0040.847 5.416 155.837 155.837 0 0078.172-21.093 155.885 155.885 0 0046.051-40.335 156.003 156.003 0 0026.98-54.969L389 249.191a196.965 196.965 0 01-34.154 69.285 196.934 196.934 0 01-58.024 50.935 196.758 196.758 0 01-73.11 24.837A198.281 198.281 0 01197.761 396z" fill="#1D1860"/></svg>