<svg width="567" height="87" viewBox="0 0 567 87" fill="none" xmlns="http://www.w3.org/2000/svg"><path d="M21.316 68.294c14.534 0 21.317-6.698 21.317-14.832 0-8.612-5.33-13.301-15.503-14.832l-8.236-1.244c-4.36-.67-6.782-2.105-6.782-4.498 0-2.87 2.906-5.741 8.72-5.741 5.813 0 9.205 3.35 9.205 6.22h11.627c0-5.741-6.298-15.79-20.832-15.79C7.267 17.578 0 24.756 0 32.889c0 8.134 5.814 12.249 15.987 13.876l7.752 1.244c5.329.86 6.782 2.583 6.782 5.454 0 2.966-2.422 5.263-9.205 5.263-6.782 0-9.689-3.828-9.689-6.22H0c0 3.35 2.907 15.79 21.316 15.79zm30.994-.957h12.112V38.151c0-5.263 3.876-9.569 9.205-9.569 4.845 0 8.236 3.35 8.236 9.57v29.185h12.111V38.151c0-5.263 3.876-9.569 9.205-9.569 4.845 0 8.236 3.35 8.236 9.57v29.185h12.111V37.195c0-11.005-8.235-19.617-18.409-19.617s-14.534 6.698-14.534 6.698h-.484s-3.876-6.698-13.565-6.698c-7.752 0-11.628 5.741-11.628 5.741h-.484l-.969-4.784H52.31v48.802zm98.865.957c9.689 0 14.049-5.741 14.049-5.741h.485l.969 4.784h10.173v-31.1c0-10.525-8.236-18.66-20.832-18.66-13.08 0-19.862 7.656-20.831 15.79h12.111c.485-2.87 3.391-6.22 8.72-6.22 5.33 0 8.721 3.828 8.721 9.09v.958h-11.143c-13.565 0-20.347 6.698-20.347 16.267 0 8.134 6.782 14.832 17.925 14.832zm1.938-9.569c-4.845 0-7.752-2.392-7.752-6.22s2.907-6.22 9.205-6.22h10.174v1.436c0 6.698-4.36 11.004-11.627 11.004zm35.831 8.612h12.111V39.108c0-6.22 2.907-9.09 9.205-9.09h8.721V18.535h-9.69c-5.813 0-8.72 4.306-8.72 4.306h-.484l-.969-4.306h-10.174v48.802zm53.753 0h10.658V56.811h-7.752c-2.422 0-3.391-.957-3.391-3.349V30.018h11.143V18.535h-11.143V4.66H230.1v13.875h-7.751v11.483h7.751v25.836c0 7.177 4.361 11.483 12.597 11.483zm22.251 0h12.596V.354h-12.596v66.983zm26.187 0h12.112V39.108c0-6.22 4.36-10.526 10.658-10.526 6.298 0 10.658 4.306 10.658 10.526v28.23h12.112V38.151c0-12.44-8.236-20.574-19.379-20.574-9.205 0-13.565 5.741-13.565 5.741h-.484l-.969-4.784h-11.143v48.802zm55.687-22.009h32.943V34.324h-32.943v11.004zm37.273 22.009h14.049l5.136-14.353h28.486l5.135 14.353h14.05L426.728.354h-18.41l-24.223 66.983zm23.254-25.836l9.205-26.794h1.938l9.205 26.794h-20.348zm49.941 44.974h12.112V62.553h.484s3.876 5.741 14.05 5.741c12.596 0 22.77-10.047 22.77-25.358 0-15.31-10.174-25.358-22.77-25.358-9.689 0-14.05 6.22-14.05 6.22h-.484l-.969-5.263H457.29v67.94zm24.708-29.185c-7.267 0-12.596-5.263-12.596-14.354 0-9.09 5.329-14.354 12.596-14.354s12.596 5.263 12.596 14.354c0 9.09-5.329 14.354-12.596 14.354zm34.904 29.185h12.111V62.553h.485s3.876 5.741 14.049 5.741c12.596 0 22.77-10.047 22.77-25.358 0-15.31-10.174-25.358-22.77-25.358-9.689 0-14.049 6.22-14.049 6.22h-.485l-.968-5.263h-11.143v67.94zm24.707-29.185c-7.266 0-12.596-5.263-12.596-14.354 0-9.09 5.33-14.354 12.596-14.354 7.267 0 12.597 5.263 12.597 14.354 0 9.09-5.33 14.354-12.597 14.354z" fill="#1D1860"/></svg>