<?xml version="1.0" encoding="utf-8"?><svg viewBox="0 0 111 129" xmlns="http://www.w3.org/2000/svg" xmlns:xlink="http://www.w3.org/1999/xlink"><style>:root>svg{display:none}:root>svg:target{display:block}</style><svg fill="none" viewBox="0 0 20 20" id="email" xmlns="http://www.w3.org/2000/svg"><rect x="1.667" y="3.333" width="16.667" height="13.333" rx="4.167" stroke="#1D1860" stroke-width="1.5"/><path d="M5 7.5l4 3a1.667 1.667 0 002 0l4-3" stroke="#1D1860" stroke-width="1.5" stroke-linecap="round" stroke-linejoin="round"/></svg><svg viewBox="0 0 111 129" id="faq-arrow" xmlns="http://www.w3.org/2000/svg"><path d="M107.97 59.151c4.04 2.383 4.04 8.315 0 10.698L9.157 128.138c-5.005 2.953-10.855-2.197-8.696-7.655l21.231-53.676a6.28 6.28 0 000-4.614L.461 8.517C-1.698 3.06 4.152-2.09 9.157.862l98.813 58.29z"/></svg><svg fill="none" viewBox="0 0 20 20" id="location" xmlns="http://www.w3.org/2000/svg"><path d="M16.667 8.68c0 4.524-5.334 9.237-6.667 9.237-1.333 0-6.667-4.713-6.667-9.236 0-3.644 2.985-6.597 6.667-6.597s6.667 2.953 6.667 6.597z" stroke="#1D1860" stroke-width="1.5"/><circle cx="2.5" cy="2.5" r="2.5" transform="matrix(-1 0 0 1 12.5 5.833)" stroke="#1D1860" stroke-width="1.5"/></svg></svg>