<svg width="165" height="152" viewBox="0 0 165 152" fill="none" xmlns="http://www.w3.org/2000/svg"><path d="M34.535 67.556c3.264 0 6.421-.443 9.414-1.27 4.176-1.155 8.86-.609 11.928 2.392a9.508 9.508 0 010 13.658l-.453.443c-3.208 3.138-8.085 3.749-12.486 2.672a35.345 35.345 0 00-8.403-1.007C15.462 84.444 0 99.567 0 118.222S15.462 152 34.535 152c19.073 0 34.535-15.123 34.535-33.778 0-.331-.005-.661-.015-.99-.137-4.658 1-9.451 4.369-12.746l.54-.529c4.966-4.856 13.017-4.856 17.983 0 3.248 3.177 4.303 7.818 4.04 12.303a33.585 33.585 0 00-.057 1.962c0 18.655 15.462 33.778 34.535 33.778C149.538 152 165 136.877 165 118.222s-15.462-33.778-34.535-33.778c-2.755 0-5.434.316-8.002.912-4.276.992-8.98.354-12.087-2.685l-.462-.452a9.346 9.346 0 010-13.424c2.967-2.901 7.477-3.474 11.527-2.404a35.304 35.304 0 009.024 1.165c19.073 0 34.535-15.123 34.535-33.778S149.538 0 130.465 0C111.392 0 95.93 15.123 95.93 33.778c0 .466.01.93.029 1.39.18 4.362-.9 8.845-4.056 11.931-4.942 4.834-12.954 4.834-17.895 0l-.555-.542c-3.277-3.205-4.44-7.84-4.386-12.372.002-.136.003-.271.003-.407C69.07 15.123 53.608 0 34.535 0 15.462 0 0 15.123 0 33.778s15.462 33.778 34.535 33.778z" fill="#A091FA"/></svg>