<svg width="138" height="159" viewBox="0 0 138 159" fill="none" xmlns="http://www.w3.org/2000/svg"><path d="M62.671 4.844c1.826-6.459 10.832-6.459 12.658 0l10.278 36.35c.98 3.463 4.48 5.517 7.92 4.646l36.267-9.175c6.435-1.628 10.935 6.34 6.306 11.165l-25.896 27c-2.493 2.599-2.493 6.743 0 9.343L136.1 111.17c4.629 4.826.129 12.793-6.306 11.165l-36.267-9.175c-3.44-.871-6.94 1.183-7.92 4.646l-10.278 36.35c-1.826 6.459-10.832 6.459-12.658 0l-10.278-36.35c-.98-3.463-4.48-5.517-7.92-4.646l-36.267 9.175C1.77 123.963-2.73 115.996 1.9 111.17l25.896-26.999c2.493-2.599 2.493-6.743 0-9.343L1.9 47.83c-4.63-4.825-.129-12.793 6.306-11.165l36.267 9.175c3.44.87 6.94-1.183 7.92-4.646L62.67 4.844z" fill="#E2DDFF"/></svg>