<svg width="637" height="495" viewBox="0 0 637 495" fill="none" xmlns="http://www.w3.org/2000/svg"><path d="M19.096 248.406c-18.29 0-26.079-22.719-11.476-33.475L294.274 3.787c12.558-9.25 30.535-.5 30.535 14.86v211.145c0 10.28 8.533 18.614 19.059 18.614h108.036c18.325 0 26.091 22.79 11.422 33.515L177.011 491.253c-12.567 9.188-30.481.43-30.481-14.901V267.02c0-10.28-8.533-18.614-19.059-18.614H19.096z" fill="#FF9A51"/><path d="M185.096 248.406c-18.29 0-26.079-22.719-11.476-33.475L460.274 3.787c12.558-9.25 30.535-.5 30.535 14.86v211.145c0 10.28 8.533 18.614 19.059 18.614h108.036c18.325 0 26.091 22.79 11.422 33.515L343.011 491.253c-12.567 9.188-30.481.43-30.481-14.901V267.02c0-10.28-8.533-18.614-19.059-18.614H185.096z" fill="#FF9A51"/></svg>