<svg width="18" height="18" viewBox="0 0 18 18" fill="none" xmlns="http://www.w3.org/2000/svg">
<g clip-path="url(#clip0_0_6515)">
<path d="M9 0C4.02944 0 0 4.02944 0 9C0 13.9706 4.02944 18 9 18C13.9706 18 18 13.9706 18 9C17.9942 4.03184 13.9682 0.00578607 9 0Z" fill="white"/>
<path d="M14.1954 6.15L9.06167 13.1167C8.93923 13.2792 8.75667 13.3856 8.55499 13.4121C8.35331 13.4387 8.14943 13.383 7.98917 13.2577L4.32317 10.3267C3.99967 10.0679 3.94729 9.59575 4.20617 9.27225C4.46505 8.94875 4.93717 8.89637 5.26067 9.15525L8.31767 11.601L12.9879 5.26275C13.1411 5.03294 13.4081 4.90589 13.683 4.93203C13.9579 4.95817 14.1963 5.13328 14.3033 5.38783C14.4104 5.64238 14.369 5.93519 14.1954 6.15Z" fill="#1D1860"/>
</g>
<defs>
<clipPath id="clip0_0_6515">
<rect width="18" height="18" fill="white"/>
</clipPath>
</defs>
</svg>
