<svg width="18" height="18" viewBox="0 0 18 18" fill="none" xmlns="http://www.w3.org/2000/svg">
<g clip-path="url(#clip0_33_21056)">
<path d="M9 0C4.02944 0 0 4.02944 0 9C0 13.9706 4.02944 18 9 18C13.9706 18 18 13.9706 18 9C17.9942 4.03184 13.9682 0.00578607 9 0Z" fill="#FF9A51"/>
<path d="M14.1953 6.14994L9.0615 13.1167C8.93907 13.2791 8.7565 13.3856 8.55482 13.4121C8.35314 13.4386 8.14926 13.383 7.989 13.2577L4.323 10.3267C3.9995 10.0678 3.94712 9.59569 4.206 9.27219C4.46488 8.94869 4.937 8.8963 5.2605 9.15519L8.3175 11.6009L12.9878 5.26269C13.1409 5.03288 13.4079 4.90583 13.6829 4.93197C13.9578 4.95811 14.1961 5.13322 14.3032 5.38777C14.4103 5.64232 14.3688 5.93513 14.1953 6.14994Z" fill="#1D1860"/>
</g>
<defs>
<clipPath id="clip0_33_21056">
<rect width="18" height="18" fill="white"/>
</clipPath>
</defs>
</svg>
