<svg width="18" height="18" viewBox="0 0 18 18" fill="none" xmlns="http://www.w3.org/2000/svg">
<g clip-path="url(#clip0_0_6553)">
<path d="M9 0C4.02944 0 0 4.02944 0 9C0 13.9706 4.02944 18 9 18C13.9706 18 18 13.9706 18 9C17.9942 4.03184 13.9682 0.00578607 9 0Z" fill="#1D1860"/>
<path d="M14.1954 6.14994L9.06168 13.1167C8.93925 13.2791 8.75668 13.3856 8.555 13.4121C8.35332 13.4386 8.14945 13.383 7.98918 13.2577L4.32318 10.3267C3.99968 10.0678 3.9473 9.59569 4.20618 9.27219C4.46507 8.94869 4.93718 8.8963 5.26068 9.15519L8.31768 11.6009L12.9879 5.26269C13.1411 5.03288 13.4081 4.90583 13.683 4.93197C13.958 4.95811 14.1963 5.13322 14.3034 5.38777C14.4105 5.64232 14.369 5.93513 14.1954 6.14994Z" fill="white"/>
</g>
<defs>
<clipPath id="clip0_0_6553">
<rect width="18" height="18" fill="white"/>
</clipPath>
</defs>
</svg>
