<svg width="167" height="70" viewBox="0 0 167 70" fill="none" xmlns="http://www.w3.org/2000/svg">
<path d="M14.8734 59.8543V53.749H15.3479V59.8543H14.8734Z" fill="#1D1860"/>
<path d="M22.4361 59.8543H22.0503L17.9302 54.6025V59.8543H17.4827V53.749H17.8685L21.9963 59.0223V53.749H22.4438L22.4361 59.8543Z" fill="#1D1860"/>
<path d="M28.7317 59.2581C28.317 59.6761 27.584 59.93 26.8607 59.93C26.4577 59.9464 26.0556 59.879 25.6794 59.7318C25.3032 59.5847 24.9608 59.361 24.6733 59.0745C24.112 58.5081 23.8381 57.7484 23.8381 56.7992C23.809 55.9767 24.0991 55.1754 24.6463 54.5668C24.918 54.2685 25.2507 54.0336 25.621 53.8784C25.9914 53.7233 26.3907 53.6516 26.7912 53.6684C27.5628 53.6684 28.1626 53.8637 28.6179 54.2426L28.3941 54.6C27.932 54.2635 27.3715 54.0942 26.8028 54.1196C26.4692 54.1068 26.1369 54.1676 25.8288 54.2978C25.5207 54.4279 25.2443 54.6244 25.0186 54.8735C24.5536 55.3994 24.3093 56.0881 24.3377 56.7933C24.3224 57.1473 24.3769 57.5008 24.4981 57.8331C24.6193 58.1654 24.8048 58.47 25.0437 58.7288C25.2841 58.9765 25.573 59.1706 25.8919 59.2984C26.2109 59.4262 26.5527 59.485 26.8954 59.471C27.4945 59.4821 28.0781 59.278 28.5426 58.8949L28.7317 59.2581Z" fill="#1D1860"/>
<path d="M30.4804 59.8539H30.0078V53.7485C30.137 53.7485 30.3936 53.7485 30.7909 53.7485C31.1883 53.7485 31.412 53.7388 31.4545 53.7388C32.8587 53.7388 33.5762 54.3247 33.5762 55.4965C33.5807 55.9036 33.4365 56.298 33.1712 56.6039C32.9018 56.9078 32.5412 57.1137 32.145 57.1899L34.2552 59.8519H33.6765L31.6705 57.2856H30.4804V59.8539ZM30.4804 54.1899V56.8285H31.5239C31.9127 56.8357 32.2914 56.7028 32.5925 56.4536C32.7433 56.3416 32.8651 56.1942 32.9474 56.0241C33.0297 55.8541 33.0701 55.6663 33.0651 55.477C33.0651 54.604 32.5231 54.1665 31.4294 54.1665C31.1786 54.1821 30.8604 54.1919 30.4804 54.1997V54.1899Z" fill="#1D1860"/>
<path d="M35.4422 59.8543V53.749H38.7753V54.2002H35.9148V56.5302H38.5187V56.9833H35.9148V59.4012H38.8602V59.8543H35.4422Z" fill="#1D1860"/>
<path d="M39.6058 59.8548L42.2329 53.7046H42.6187L45.2458 59.8626H44.7366L43.857 57.7865H40.9637L40.0841 59.8626L39.6058 59.8548ZM42.4142 54.3589L41.1566 57.3256H43.6641L42.4142 54.3589Z" fill="#1D1860"/>
<path d="M46.0738 55.1939C46.0678 54.9879 46.1073 54.7832 46.1894 54.5947C46.2715 54.4061 46.3941 54.2385 46.5483 54.104C46.9097 53.7996 47.3711 53.6441 47.8406 53.6685C48.5042 53.6685 49.1156 53.9029 49.4609 54.2857L49.2024 54.6431C49.0245 54.4673 48.8129 54.3302 48.5807 54.2402C48.3485 54.1502 48.1006 54.1092 47.8522 54.1197C47.0594 54.1197 46.5695 54.5396 46.5695 55.1939C46.5695 56.893 49.6885 56.2056 49.6885 58.3188C49.6961 58.5446 49.65 58.769 49.554 58.9729C49.458 59.1769 49.3149 59.3544 49.1368 59.4906C48.744 59.793 48.2605 59.9495 47.7673 59.934C47.3877 59.9323 47.0123 59.8525 46.664 59.6996C46.3516 59.5717 46.0884 59.3449 45.9137 59.0531L46.1972 58.7211C46.3867 58.9555 46.6246 59.1451 46.8942 59.2763C47.1638 59.4076 47.4586 59.4774 47.7577 59.4809C48.1172 59.4911 48.4703 59.3835 48.7646 59.1742C48.9003 59.0832 49.0105 58.9583 49.0845 58.8115C49.1585 58.6647 49.1938 58.501 49.187 58.3364C49.1928 56.6157 46.0738 57.2172 46.0738 55.1939Z" fill="#1D1860"/>
<path d="M51.0984 59.8543V53.749H54.4335V54.2002H51.573V56.5302H54.175V56.9833H51.573V59.4012H54.5203V59.8543H51.0984Z" fill="#1D1860"/>
<path d="M62.0368 53.749L59.8668 57.1845V59.8543H59.3923V57.1845L57.2474 53.749H57.799L59.6488 56.7314L61.5121 53.749H62.0368Z" fill="#1D1860"/>
<path d="M63.2105 54.5696C63.786 53.9969 64.5601 53.6752 65.3669 53.6733C66.1738 53.6715 66.9493 53.9897 67.5273 54.5598C67.8152 54.8541 68.0409 55.2046 68.1904 55.5902C68.34 55.9757 68.4104 56.388 68.3972 56.802C68.4085 57.2152 68.3374 57.6266 68.1883 58.0114C68.0391 58.3963 67.815 58.7469 67.5293 59.0422C67.2508 59.3333 66.9157 59.5628 66.5452 59.7161C66.1747 59.8694 65.7768 59.9432 65.3766 59.9328C64.9757 59.9426 64.577 59.8696 64.2049 59.7182C63.8328 59.5667 63.4951 59.34 63.2124 59.0519C62.6594 58.4398 62.3527 57.6403 62.3527 56.8108C62.3527 55.9812 62.6594 55.1817 63.2124 54.5696H63.2105ZM63.5731 58.7121C63.8035 58.9608 64.0829 59.1576 64.3933 59.2898C64.7037 59.4221 65.038 59.4867 65.3747 59.4796C65.7127 59.4902 66.0489 59.4272 66.3608 59.2947C66.6726 59.1623 66.9527 58.9636 67.1821 58.7121C67.6585 58.1949 67.9155 57.509 67.8977 56.802C67.909 56.4499 67.8501 56.0991 67.7245 55.7706C67.5989 55.442 67.4091 55.1425 67.1666 54.8899C66.933 54.6469 66.6536 54.4537 66.345 54.3218C66.0364 54.1899 65.7048 54.122 65.3699 54.122C65.0349 54.122 64.7034 54.1899 64.3948 54.3218C64.0862 54.4537 63.8068 54.6469 63.5731 54.8899C63.1074 55.4147 62.8497 56.0954 62.8497 56.801C62.8497 57.5066 63.1074 58.1873 63.5731 58.7121V58.7121Z" fill="#1D1860"/>
<path d="M74.4813 53.749V57.2978C74.4813 58.1786 74.2653 58.8329 73.8352 59.2704C73.6206 59.4865 73.3646 59.6558 73.083 59.768C72.8014 59.8802 72.5 59.9328 72.1976 59.9227C71.871 59.9375 71.5449 59.8841 71.2397 59.7659C70.9344 59.6476 70.6564 59.467 70.423 59.2352C69.9755 58.7743 69.7498 58.1005 69.7498 57.2372V53.749H70.2243V57.1493C70.2243 58.6161 70.9959 59.4715 72.1976 59.4715C73.3009 59.4715 74.0068 58.704 74.0068 57.1923V53.749H74.4813Z" fill="#1D1860"/>
<path d="M76.8044 59.8539H76.3299V53.7485C76.4591 53.7485 76.7157 53.7485 77.1149 53.7485C77.5142 53.7485 77.7341 53.7388 77.7765 53.7388C79.1808 53.7388 79.8887 54.3247 79.8887 55.4965C79.8932 55.9036 79.7489 56.298 79.4836 56.6039C79.2145 56.9082 78.8538 57.1141 78.4574 57.1899L80.5676 59.8519H79.989L77.9752 57.2875H76.8044V59.8539ZM76.8044 54.1899V56.8285H77.846C78.2348 56.8357 78.6135 56.7028 78.9146 56.4536C79.0658 56.3418 79.1879 56.1945 79.2706 56.0244C79.3532 55.8544 79.3939 55.6665 79.3891 55.477C79.3891 54.604 78.8451 54.1665 77.7515 54.1665C77.5026 54.1821 77.1825 54.1919 76.8044 54.1997V54.1899Z" fill="#1D1860"/>
<path d="M83.7723 59.8543V53.749H84.2545L86.6829 57.0986L89.0188 53.749H89.476V59.8543H89.0015V54.499L86.6868 57.7958H86.6116L84.2468 54.5244V59.8543H83.7723Z" fill="#1D1860"/>
<path d="M91.7775 54.5687C92.0551 54.2737 92.3909 54.0412 92.7632 53.8864C93.1354 53.7316 93.5356 53.658 93.9379 53.6703C94.3385 53.6591 94.7371 53.7323 95.1083 53.8853C95.4795 54.0382 95.8153 54.2676 96.0943 54.5589C96.3822 54.8532 96.6079 55.2037 96.7574 55.5892C96.907 55.9747 96.9774 56.3871 96.9643 56.8011C96.9752 57.2145 96.9038 57.6259 96.7544 58.0108C96.6049 58.3956 96.3804 58.7461 96.0943 59.0412C95.8157 59.3326 95.4803 59.5622 95.1094 59.7155C94.7385 59.8688 94.3402 59.9425 93.9398 59.9318C93.5394 59.9419 93.1412 59.8689 92.7697 59.7174C92.3982 59.566 92.0612 59.3392 91.7795 59.051C91.2264 58.4389 90.9197 57.6394 90.9197 56.8098C90.9197 55.9803 91.2264 55.1808 91.7795 54.5687H91.7775ZM92.1382 58.7112C92.3682 58.9598 92.6473 59.1566 92.9574 59.2889C93.2674 59.4211 93.6015 59.4858 93.9379 59.4787C94.2764 59.4891 94.6132 59.426 94.9256 59.2936C95.238 59.1612 95.5188 58.9626 95.7491 58.7112C96.2241 58.1932 96.4803 57.5077 96.4628 56.8011C96.4741 56.449 96.4152 56.0982 96.2895 55.7696C96.1639 55.4411 95.9742 55.1416 95.7317 54.889C95.4981 54.646 95.2187 54.4528 94.9101 54.3209C94.6015 54.189 94.2699 54.1211 93.935 54.1211C93.6 54.1211 93.2684 54.189 92.9598 54.3209C92.6512 54.4528 92.3719 54.646 92.1382 54.889C91.6725 55.4138 91.4148 56.0945 91.4148 56.8001C91.4148 57.5057 91.6725 58.1863 92.1382 58.7112V58.7112Z" fill="#1D1860"/>
<path d="M103.329 59.8543H102.943L98.8151 54.6025V59.8543H98.3734V53.749H98.7591L102.885 59.0223V53.749H103.336L103.329 59.8543Z" fill="#1D1860"/>
<path d="M105.249 59.8539V53.7485H108.584V54.1997H105.727V56.5297H108.329V56.9828H105.727V59.4007H108.674V59.8539H105.249Z" fill="#1D1860"/>
<path d="M109.356 54.2002V53.749H114.292V54.2002H112.06V59.8641H111.585V54.2002H109.356Z" fill="#1D1860"/>
<path d="M115.527 59.8543V53.749H116.002V59.8543H115.527Z" fill="#1D1860"/>
<path d="M117.688 54.2002V53.749H122.159V54.0518L118.17 59.4012H122.246V59.8543H117.513V59.5477L121.484 54.2002H117.688Z" fill="#1D1860"/>
<path d="M122.595 59.8548L125.224 53.7046H125.61L128.237 59.8626H127.732L126.852 57.7865H123.959L123.079 59.8626L122.595 59.8548ZM125.406 54.3589L124.146 57.3256H126.654L125.406 54.3589Z" fill="#1D1860"/>
<path d="M127.859 54.2002V53.749H132.795V54.2002H130.566V59.8641H130.091V54.2002H127.859Z" fill="#1D1860"/>
<path d="M134.031 59.8543V53.749H134.506V59.8543H134.031Z" fill="#1D1860"/>
<path d="M137.02 54.5696C137.596 53.9969 138.37 53.6752 139.177 53.6733C139.983 53.6715 140.759 53.9897 141.337 54.5598C141.623 54.8547 141.848 55.2056 141.996 55.5911C142.144 55.9766 142.213 56.3886 142.199 56.802C142.21 57.2154 142.139 57.6268 141.989 58.0117C141.84 58.3966 141.615 58.747 141.329 59.0422C141.051 59.3335 140.715 59.5632 140.344 59.7165C139.973 59.8698 139.575 59.9434 139.175 59.9328C138.774 59.9428 138.375 59.8699 138.004 59.7184C137.632 59.567 137.295 59.3402 137.012 59.0519C136.459 58.4398 136.153 57.6403 136.153 56.8108C136.153 55.9812 136.459 55.1817 137.012 54.5696H137.02ZM137.377 58.7121C137.607 58.9608 137.887 59.1576 138.197 59.2898C138.507 59.4221 138.842 59.4867 139.178 59.4796C139.517 59.4902 139.853 59.4272 140.165 59.2948C140.478 59.1624 140.758 58.9637 140.988 58.7121C141.464 58.1945 141.72 57.5089 141.703 56.802C141.714 56.4497 141.655 56.0989 141.529 55.7704C141.403 55.4419 141.213 55.1424 140.97 54.8899C140.737 54.6469 140.457 54.4537 140.149 54.3218C139.84 54.1899 139.509 54.122 139.174 54.122C138.839 54.122 138.507 54.1899 138.199 54.3218C137.89 54.4537 137.611 54.6469 137.377 54.8899C136.912 55.4153 136.656 56.0958 136.656 56.801C136.656 57.5062 136.912 58.1867 137.377 58.7121V58.7121Z" fill="#1D1860"/>
<path d="M148.588 59.8543H148.203L144.075 54.6025V59.8543H143.629V53.749H144.015L148.141 59.0223V53.749H148.588V59.8543Z" fill="#1D1860"/>
<path d="M20.9666 21.3335V44.0908H13.9205V21.3335H20.9666Z" fill="#1D1860"/>
<path d="M45.6937 44.0908H38.6456L31.1866 32.6477V44.0908H24.1424V21.3335H31.1866L38.6456 32.9699V21.3335H45.6937V44.0908Z" fill="#1D1860"/>
<path d="M49.5802 26.6707C50.4425 24.951 51.7837 23.5251 53.438 22.5692C55.1097 21.5953 57.0778 21.1077 59.3422 21.1064C61.1429 21.0744 62.9276 21.4536 64.5637 22.2157C66.055 22.917 67.3444 23.9927 68.3096 25.3406C69.2959 26.7491 69.9517 28.367 70.2269 30.071H62.8007C62.4944 29.3576 61.9931 28.7478 61.356 28.3132C60.7197 27.8918 59.9732 27.6734 59.213 27.6863C58.0287 27.6863 57.0925 28.1361 56.4046 29.0359C55.7166 29.9356 55.3726 31.1465 55.3726 32.6686C55.3726 34.1907 55.7166 35.4009 56.4046 36.2994C57.0925 37.1978 58.0287 37.6476 59.213 37.6489C59.9733 37.6628 60.7201 37.4443 61.356 37.022C61.9933 36.5877 62.4947 35.9777 62.8007 35.2642H70.2269C69.9504 36.967 69.294 38.5834 68.3076 39.9907C67.3425 41.3386 66.0531 42.4143 64.5618 43.1156C62.9256 43.8777 61.141 44.2569 59.3403 44.2249C57.0758 44.2249 55.1077 43.7373 53.436 42.7621C51.7813 41.8068 50.44 40.3807 49.5783 38.6606C48.6782 36.9055 48.2281 34.9022 48.2281 32.651C48.2281 30.3998 48.6788 28.4063 49.5802 26.6707Z" fill="#1D1860"/>
<path d="M94.3394 21.3335L86.2768 37.1808V44.0908H79.2306V37.1808L71.1679 21.3335H79.2306L82.8183 29.4017L86.4041 21.3335H94.3394Z" fill="#1D1860"/>
<path d="M122.969 21.3335V44.0908H115.956V32.7434L112.501 44.0908H106.464L103.005 32.7434V44.0908H95.957V21.3335H104.593L109.544 34.9953L114.366 21.3335H122.969Z" fill="#1D1860"/>
<path d="M131.263 42.8056C129.516 41.8209 128.063 40.3778 127.058 38.6279C126.007 36.8033 125.468 34.7225 125.501 32.6105C125.47 30.5006 126.008 28.4221 127.058 26.5989C128.064 24.8584 129.517 23.4262 131.263 22.4545C133.048 21.474 135.048 20.9604 137.079 20.9604C139.111 20.9604 141.11 21.474 142.896 22.4545C144.634 23.4328 146.077 24.8715 147.07 26.6165C148.11 28.443 148.643 30.52 148.613 32.6281C148.643 34.7355 148.11 36.812 147.07 38.6377C146.072 40.3884 144.624 41.8323 142.88 42.8153C141.101 43.807 139.103 44.3269 137.071 44.3269C135.04 44.3269 133.042 43.807 131.263 42.8153V42.8056ZM140.328 36.2979C141.091 35.3865 141.471 34.16 141.47 32.6183C141.47 31.0559 141.09 29.8189 140.328 28.9075C139.567 27.996 138.486 27.5377 137.086 27.5325C135.671 27.5325 134.582 27.9882 133.818 28.8997C133.054 29.8111 132.673 31.048 132.675 32.6105C132.675 34.1534 133.056 35.38 133.818 36.2901C134.581 37.2002 135.67 37.656 137.086 37.6573C138.485 37.6612 139.564 37.2081 140.324 36.2979H140.328Z" fill="#1D1860"/>
<path d="M20.9666 9.56299H13.9205V16.6976H20.9666V9.56299Z" fill="#1D1860"/>
</svg>
